<svg xmlns="http://www.w3.org/2000/svg" viewBox="0 0 1480 620" role="img" aria-label="Máddu workflows blueprint">
  <title>Máddu workflows — operator → orientation → BOSS/Enforcer → claims / sessions tree → fleet → gates / reviews → reports → learning / wiki</title>
  <desc>How Máddu thinks: an operator opens the cockpit, reads the orientation digest, then directs BOSS (LLM voice, proposes) and Enforcer (deterministic, refuses). They write to the queue and claims; claims include the v0.17 session tree for autoRegister fan-out. The fleet executes; gates and reviews verify (gates are structural, reviews are semantic — v0.16). Reports surface in the cockpit; learning and wiki accumulate.</desc>
  <defs>
    <style>
      .canvas    { fill: #050B17; }
      .panel     { fill: #0C1428; stroke: rgba(80,113,149,0.30); stroke-width: 1; }
      .node-rect { fill: #0A1224; stroke: #D0FF00; stroke-width: 1.2; }
      .node-rect.boss   { stroke: #56B8FF; }
      .node-rect.warm   { stroke: #F2BD5C; }
      .edge      { fill: none; stroke: rgba(80,113,149,0.55); stroke-width: 1.5; opacity: 0.85; }
      .edge.live { stroke: #D0FF00; stroke-width: 2; opacity: 0.75; }
      .cond-b    { font-family: 'IBM Plex Sans Condensed','Inter','Helvetica Neue',sans-serif; font-weight: 600; letter-spacing: 0.06em; }
      .mono      { font-family: 'IBM Plex Mono','JetBrains Mono','Consolas',monospace; }
    </style>
    <filter id="glow-lime" x="-30%" y="-30%" width="160%" height="160%">
      <feGaussianBlur stdDeviation="2.2" result="b"/>
      <feMerge><feMergeNode in="b"/><feMergeNode in="SourceGraphic"/></feMerge>
    </filter>
    <filter id="glow-cyan" x="-30%" y="-30%" width="160%" height="160%">
      <feGaussianBlur stdDeviation="2.2" result="b"/>
      <feMerge><feMergeNode in="b"/><feMergeNode in="SourceGraphic"/></feMerge>
    </filter>
  </defs>

  <rect class="canvas" width="1480" height="620"/>

  <!-- Title strip -->
  <g transform="translate(40,30)">
    <text x="0" y="0" class="cond-b" fill="#D0FF00" font-size="11" letter-spacing="0.14em" filter="url(#glow-lime)">◈ WORKFLOWS</text>
    <text x="0" y="22" class="cond-b" fill="#E8E6E3" font-size="20">Blueprint of how Máddu thinks</text>
    <text x="0" y="42" class="mono" fill="#6a7079" font-size="11">operator → orientation → BOSS / Enforcer → claims / sessions → fleet → gates / reviews → reports → learning / wiki</text>
  </g>

  <!-- Bezier edges -->
  <g>
    <!-- operator → orientation (v0.17 turn-start, lime) -->
    <path d="M 220 220 C 240 220, 240 220, 260 220" class="edge live"/>
    <!-- orientation → BOSS -->
    <path d="M 380 220 C 420 220, 420 160, 460 160" class="edge live"/>
    <!-- orientation → Enforcer -->
    <path d="M 380 220 C 420 220, 420 280, 460 280" class="edge"/>

    <!-- BOSS → Queue -->
    <path d="M 580 160 C 620 160, 620 120, 660 120" class="edge live"/>
    <!-- BOSS → Claims -->
    <path d="M 580 160 C 620 160, 620 220, 660 220" class="edge"/>
    <!-- Enforcer → Queue -->
    <path d="M 580 280 C 620 280, 620 120, 660 120" class="edge"/>
    <!-- Enforcer → Claims -->
    <path d="M 580 280 C 620 280, 620 220, 660 220" class="edge"/>
    <!-- Claims → Sessions tree (v0.17) -->
    <path d="M 720 240 C 720 280, 720 300, 720 320" class="edge"/>

    <!-- Queue → Fleet -->
    <path d="M 780 120 C 840 120, 840 220, 900 220" class="edge live"/>
    <!-- Claims → Fleet -->
    <path d="M 780 220 C 840 220, 840 220, 900 220" class="edge"/>
    <!-- Sessions → Fleet -->
    <path d="M 780 340 C 840 340, 840 220, 900 220" class="edge"/>

    <!-- Fleet → Gates -->
    <path d="M 1020 220 C 1060 220, 1060 120, 1100 120" class="edge"/>
    <!-- Fleet → Reviews (v0.16, live) -->
    <path d="M 1020 220 C 1060 220, 1060 220, 1100 220" class="edge live"/>
    <!-- Fleet → Reports -->
    <path d="M 1020 220 C 1060 220, 1060 320, 1100 320" class="edge live"/>

    <!-- Gates → Reports -->
    <path d="M 1220 140 C 1220 220, 1220 220, 1100 320" class="edge" opacity="0.4"/>
    <!-- Reviews → Reports -->
    <path d="M 1220 240 C 1220 280, 1220 280, 1100 320" class="edge"/>

    <!-- Reports → Learning -->
    <path d="M 1220 320 C 1260 320, 1260 140, 1300 140" class="edge live"/>
    <!-- Reports → Wiki -->
    <path d="M 1220 320 C 1260 320, 1260 280, 1300 280" class="edge live"/>
  </g>

  <!-- Nodes -->
  <g class="cond-b" font-size="13" text-anchor="middle">
    <!-- Operator -->
    <g transform="translate(100,198)">
      <rect class="node-rect" width="120" height="44" rx="6"/>
      <text x="60" y="28" fill="#E8E6E3">OPERATOR</text>
    </g>

    <!-- Orientation (v0.17) — glow because turn-start primitive -->
    <g transform="translate(260,198)">
      <rect class="node-rect" width="120" height="44" rx="6" filter="url(#glow-lime)"/>
      <text x="60" y="28" fill="#D0FF00">ORIENTATION</text>
    </g>

    <!-- BOSS -->
    <g transform="translate(460,138)">
      <rect class="node-rect boss" width="120" height="44" rx="6" filter="url(#glow-cyan)"/>
      <text x="60" y="28" fill="#56B8FF">BOSS</text>
    </g>
    <!-- Enforcer -->
    <g transform="translate(460,258)">
      <rect class="node-rect warm" width="120" height="44" rx="6"/>
      <text x="60" y="28" fill="#F2BD5C">ENFORCER</text>
    </g>

    <!-- Queue -->
    <g transform="translate(660,98)">
      <rect class="node-rect" width="120" height="44" rx="6"/>
      <text x="60" y="28" fill="#E8E6E3">QUEUE</text>
    </g>
    <!-- Claims -->
    <g transform="translate(660,198)">
      <rect class="node-rect" width="120" height="44" rx="6"/>
      <text x="60" y="28" fill="#E8E6E3">CLAIMS</text>
    </g>
    <!-- Sessions tree (v0.17) -->
    <g transform="translate(660,318)">
      <rect class="node-rect" width="120" height="44" rx="6"/>
      <text x="60" y="28" fill="#E8E6E3">SESSIONS</text>
    </g>

    <!-- Fleet -->
    <g transform="translate(900,198)">
      <rect class="node-rect" width="120" height="44" rx="6"/>
      <text x="60" y="28" fill="#E8E6E3">FLEET</text>
    </g>

    <!-- Gates -->
    <g transform="translate(1100,98)">
      <rect class="node-rect" width="120" height="44" rx="6"/>
      <text x="60" y="28" fill="#E8E6E3">GATES</text>
    </g>
    <!-- Reviews (v0.16) — glow because semantic check -->
    <g transform="translate(1100,198)">
      <rect class="node-rect boss" width="120" height="44" rx="6" filter="url(#glow-cyan)"/>
      <text x="60" y="28" fill="#56B8FF">REVIEWS</text>
    </g>
    <!-- Reports -->
    <g transform="translate(1100,298)">
      <rect class="node-rect" width="120" height="44" rx="6"/>
      <text x="60" y="28" fill="#E8E6E3">REPORTS</text>
    </g>

    <!-- Learning — glow because terminal-value surface -->
    <g transform="translate(1300,118)">
      <rect class="node-rect" width="120" height="44" rx="6" filter="url(#glow-lime)"/>
      <text x="60" y="28" fill="#D0FF00">LEARNING</text>
    </g>
    <!-- Wiki — glow because terminal-value surface -->
    <g transform="translate(1300,258)">
      <rect class="node-rect" width="120" height="44" rx="6" filter="url(#glow-lime)"/>
      <text x="60" y="28" fill="#D0FF00">WIKI</text>
    </g>
  </g>

  <!-- v0.17 / v0.16 annotation marks -->
  <g class="mono" font-size="9" letter-spacing="0.06em">
    <text x="320" y="180" text-anchor="middle" fill="#6a7079">v0.17</text>
    <text x="720" y="300" text-anchor="middle" fill="#6a7079">v0.17</text>
    <text x="1160" y="180" text-anchor="middle" fill="#6a7079">v0.16</text>
  </g>

  <!-- Legend strip -->
  <g transform="translate(40,460)">
    <text x="0" y="0" class="cond-b" fill="#6a7079" font-size="10" letter-spacing="0.10em">LEGEND</text>
    <line x1="0" y1="20" x2="1400" y2="20" stroke="rgba(80,113,149,0.18)" stroke-width="1"/>
    <g transform="translate(0,40)">
      <rect width="14" height="2" fill="#D0FF00"/>
      <text x="22" y="6" class="mono" fill="#6a7079" font-size="11">primary flow (live)</text>
    </g>
    <g transform="translate(200,40)">
      <rect width="14" height="2" fill="rgba(80,113,149,0.55)"/>
      <text x="22" y="6" class="mono" fill="#6a7079" font-size="11">secondary edge</text>
    </g>
    <g transform="translate(380,40)">
      <rect width="12" height="12" fill="#0A1224" stroke="#D0FF00"/>
      <text x="22" y="11" class="mono" fill="#6a7079" font-size="11">canonical surface — clickable in cockpit</text>
    </g>
    <g transform="translate(740,40)">
      <rect width="12" height="12" fill="#0A1224" stroke="#56B8FF"/>
      <text x="22" y="11" class="mono" fill="#6a7079" font-size="11">BOSS · LLM voice (proposes)</text>
    </g>
    <g transform="translate(1020,40)">
      <rect width="12" height="12" fill="#0A1224" stroke="#F2BD5C"/>
      <text x="22" y="11" class="mono" fill="#6a7079" font-size="11">ENFORCER · deterministic (refuses)</text>
    </g>
  </g>

  <!-- Tagline -->
  <g transform="translate(740,580)">
    <text x="0" y="0" class="mono" fill="#6a7079" font-size="10" text-anchor="middle" letter-spacing="0.08em">EVERY EDGE IS AN NDJSON EVENT · EVERY NODE IS A COCKPIT ROUTE</text>
  </g>
</svg>
